<svg width="50" height="50" viewBox="0 0 50 50" fill="none" xmlns="http://www.w3.org/2000/svg">
<rect x="0.5" y="-0.5" width="49" height="49" rx="24.5" transform="matrix(1 0 0 -1 0 49)" fill="#00B25B" fill-opacity="0.5"/>
<rect x="0.5" y="-0.5" width="49" height="49" rx="24.5" transform="matrix(1 0 0 -1 0 49)" stroke="#00B25B"/>
<path d="M24.9169 21.2386L18.2414 27.8388C17.9195 28.157 17.9195 28.6732 18.2414 28.9914L19.0201 29.7613C19.3416 30.0792 19.8624 30.0795 20.1846 29.7627L25.4998 24.5317L30.8155 29.7623C31.1377 30.0795 31.6584 30.0788 31.9799 29.761L32.7586 28.9911C33.0805 28.6729 33.0805 28.1567 32.7586 27.8385L26.0828 21.2386C25.7609 20.9205 25.2388 20.9205 24.9169 21.2386Z" fill="white"/>
</svg>
