<svg width="32" height="32" viewBox="0 0 32 32" fill="none" xmlns="http://www.w3.org/2000/svg">
<g clip-path="url(#clip0_432_547)">
<path d="M24.8818 16.6562H28V12.4375H24.8818C23.8915 7.56934 19.596 4 14.5469 4C8.71797 4 4 8.71712 4 14.5469C4 17.937 5.58555 20.9699 8.15111 22.9345L4.80147 28H12.4375V26.5938H7.41728L9.32195 23.7134C10.896 24.6139 12.6845 25.0938 14.5469 25.0938C16.3917 25.0938 18.1895 24.611 19.7697 23.7102L21.6765 26.5938H16.6562V28H24.2923L20.9422 22.9338C22.9786 21.3801 24.3759 19.1433 24.8818 16.6562ZM26.5938 15.25H22.2812V13.8438H26.5938V15.25ZM15.25 6.10938C15.25 6.49708 14.9346 6.8125 14.5469 6.8125C14.1592 6.8125 13.8438 6.49708 13.8438 6.10938C13.8438 5.72167 14.1592 5.40625 14.5469 5.40625C14.9346 5.40625 15.25 5.72167 15.25 6.10938ZM9.07788 8.08347C9.35261 8.35825 9.3527 8.803 9.07788 9.07783C8.80309 9.35256 8.35834 9.35266 8.08352 9.07783C7.82748 8.8218 7.76983 8.398 8.14548 8.02895C8.42209 7.80986 8.82302 7.82866 9.07788 8.08347ZM5.40625 14.5469C5.40625 12.7704 5.9162 11.111 6.79666 9.70638C6.87953 9.83716 6.97698 9.96006 7.08911 10.0722C7.91345 10.8965 9.24775 10.8966 10.0722 10.0722C10.8966 9.24789 10.8967 7.91355 10.0722 7.08906C9.96006 6.97689 9.8372 6.87948 9.70642 6.79661C10.5523 6.26641 11.4903 5.87031 12.491 5.63941C12.4564 5.79067 12.4375 5.94784 12.4375 6.10938C12.4375 7.27248 13.3838 8.21875 14.5469 8.21875C15.71 8.21875 16.6562 7.27248 16.6562 6.10938C16.6562 5.94911 16.6377 5.79316 16.6037 5.64302C19.9403 6.42198 22.6397 9.05045 23.4425 12.4375H20.875V13.8438H16.5353C16.2451 13.0254 15.4635 12.4375 14.5469 12.4375C13.3838 12.4375 12.4375 13.3838 12.4375 14.5469C12.4375 15.0214 12.5951 15.4598 12.8606 15.8126L8.93158 21.7543C6.78742 20.08 5.40625 17.4718 5.40625 14.5469ZM13.8438 14.5469C13.8438 14.1592 14.1592 13.8438 14.5469 13.8438C14.9346 13.8438 15.25 14.1592 15.25 14.5469C15.25 14.9346 14.9346 15.25 14.5469 15.25C14.1592 15.25 13.8438 14.9346 13.8438 14.5469ZM13.8438 22.9844C13.8438 22.5967 14.1592 22.2812 14.5469 22.2812C14.9346 22.2812 15.25 22.5967 15.25 22.9844C15.25 23.3721 14.9346 23.6875 14.5469 23.6875C14.1592 23.6875 13.8438 23.3721 13.8438 22.9844ZM16.6037 23.4507C16.6377 23.3006 16.6562 23.1446 16.6562 22.9844C16.6562 21.8213 15.71 20.875 14.5469 20.875C13.3838 20.875 12.4375 21.8213 12.4375 22.9844C12.4375 23.1459 12.4563 23.3031 12.4909 23.4543C11.6442 23.2589 10.8424 22.9451 10.1032 22.5321L14.0311 16.5922C14.1962 16.6339 14.3689 16.6562 14.5469 16.6562C14.7248 16.6562 14.8976 16.6339 15.0627 16.5922L18.9863 22.5255C18.246 22.9397 17.4452 23.2543 16.6037 23.4507ZM20.1577 21.7474L16.2331 15.8126C16.3607 15.643 16.4631 15.4536 16.5353 15.25H20.875V16.6562H23.4425C22.9544 18.7156 21.765 20.4942 20.1577 21.7474Z" fill="#BACED0"/>
<path d="M8.92188 12.4375C7.75877 12.4375 6.8125 13.3838 6.8125 14.5469C6.8125 15.71 7.75877 16.6562 8.92188 16.6562C10.085 16.6562 11.0312 15.71 11.0312 14.5469C11.0312 13.3838 10.085 12.4375 8.92188 12.4375ZM8.92188 15.25C8.53417 15.25 8.21875 14.9346 8.21875 14.5469C8.21875 14.1592 8.53417 13.8438 8.92188 13.8438C9.30958 13.8438 9.625 14.1592 9.625 14.5469C9.625 14.9346 9.30958 15.25 8.92188 15.25Z" fill="#BACED0"/>
<path d="M18.7656 12.4375C19.9287 12.4375 20.875 11.4912 20.875 10.3281C20.875 9.16502 19.9287 8.21875 18.7656 8.21875C17.6025 8.21875 16.6562 9.16502 16.6562 10.3281C16.6562 11.4912 17.6025 12.4375 18.7656 12.4375ZM18.7656 9.625C19.1533 9.625 19.4688 9.94042 19.4688 10.3281C19.4688 10.7158 19.1533 11.0312 18.7656 11.0312C18.3779 11.0312 18.0625 10.7158 18.0625 10.3281C18.0625 9.94042 18.3779 9.625 18.7656 9.625Z" fill="#BACED0"/>
</g>
<defs>
<clipPath id="clip0_432_547">
<rect width="24" height="24" fill="white" transform="translate(4 4)"/>
</clipPath>
</defs>
</svg>
