<svg width="32" height="32" viewBox="0 0 32 32" fill="none" xmlns="http://www.w3.org/2000/svg">
<path d="M17.3589 9.15591C16.4571 8.3948 16.4412 8.37108 16 7.99139C15.5358 8.39082 15.5497 8.38889 14.6414 9.15568C12.9967 10.5438 11.8083 11.5468 11.8083 13.0752C11.8083 14.5313 12.8834 15.6718 14.2557 15.6718C14.6278 15.6718 14.9791 15.5843 15.2969 15.4202V16.6562H13.8906V18.0625H18.1094V16.6562H16.7031V15.4203C17.0209 15.5843 17.3722 15.6719 17.7443 15.6719C19.1167 15.6719 20.1917 14.5313 20.1917 13.0753C20.1917 11.4854 18.878 10.4381 17.3589 9.15591ZM17.7443 14.2656C17.1191 14.2656 16.8091 13.6233 16.7048 13.3471L16.5331 12.8925H15.4669L15.2952 13.3471C15.1909 13.6233 14.8808 14.2656 14.2557 14.2656C13.5722 14.2656 13.2146 13.6668 13.2146 13.0753C13.2146 12.2373 13.9722 11.5606 15.5484 10.2303C15.6958 10.1058 15.8459 9.97922 16 9.84821C16.1542 9.97927 16.3043 10.106 16.4519 10.2306C17.8799 11.4358 18.7855 12.2003 18.7855 13.0753C18.7855 13.6668 18.4279 14.2656 17.7443 14.2656Z" fill="#BACED0"/>
<path d="M25.1406 13.1406C25.1406 8.10048 21.0401 4 16 4C10.9599 4 6.85938 8.10048 6.85938 13.1406C6.85938 15.3921 7.68531 17.5555 9.18198 19.2289L12.3709 22.8417C11.1465 23.1964 9.67188 23.912 9.67188 25.1875C9.67188 27.3779 13.7713 28 16 28C18.2271 28 22.3281 27.3784 22.3281 25.1875C22.3281 23.9117 20.853 23.1963 19.6291 22.8417L22.815 19.2324C24.3147 17.5555 25.1406 15.3921 25.1406 13.1406ZM11.0781 25.1875C11.0781 24.9473 11.7898 24.3691 13.4198 24.0299L15.6794 26.5899C12.8259 26.5277 11.0781 25.6352 11.0781 25.1875ZM20.9219 25.1875C20.9219 25.8715 18.3682 26.5452 16.3206 26.5899L18.5802 24.0299C20.2102 24.3691 20.9219 24.9473 20.9219 25.1875ZM16 24.8281L10.2332 18.2949C8.96439 16.8762 8.26562 15.0458 8.26562 13.1406C8.26562 8.87589 11.7353 5.40625 16 5.40625C20.2647 5.40625 23.7344 8.87589 23.7344 13.1406C23.7344 15.0458 23.0356 16.8762 21.7637 18.2983L16 24.8281Z" fill="#BACED0"/>
</svg>
