<svg width="32" height="32" viewBox="0 0 32 32" fill="none" xmlns="http://www.w3.org/2000/svg">
<path d="M16 16.75C17.1631 16.75 18.1094 15.8037 18.1094 14.6406H16.7031C16.7031 15.0283 16.3877 15.3438 16 15.3438C15.6123 15.3438 15.2969 15.0283 15.2969 14.6406H13.8906C13.8906 15.8037 14.8369 16.75 16 16.75Z" fill="#BACED0"/>
<path d="M15.2969 23.7812H16.7031V25.1875H15.2969V23.7812Z" fill="#BACED0"/>
<path d="M22.3163 19.6311C22.2706 18.3245 22.0832 17.0312 21.7574 15.7674L22.534 16.544L23.5284 15.5497L21.4894 13.5107C21.9986 13.1253 22.3281 12.5145 22.3281 11.8281C22.3281 10.9114 21.7404 10.1294 20.9219 9.83922V7.51562C20.9219 5.57711 19.3448 4 17.4062 4H14.5938C12.6552 4 11.0781 5.57711 11.0781 7.51562V9.83922C10.2596 10.1294 9.67188 10.9114 9.67188 11.8281C9.67188 12.5117 9.99644 13.12 10.5122 13.5091L8.47159 15.5497L9.46595 16.544L10.2426 15.7674C9.9168 17.0312 9.72948 18.3245 9.68369 19.6311C8.07512 19.9532 6.85938 21.3762 6.85938 23.0781V28H25.1406V23.0781C25.1406 21.3762 23.9249 19.9532 22.3163 19.6311ZM18.1094 19.5625V19.0888C19.1977 18.5724 20.044 17.6782 20.513 16.6005C20.7331 17.5734 20.8647 18.5636 20.9068 19.5625H18.1094V19.5625ZM14.5938 5.40625H17.4062C18.5694 5.40625 19.5156 6.35252 19.5156 7.51562V9.71875H18.8125C18.4248 9.71875 18.1094 9.40333 18.1094 9.01562C18.1094 7.85252 17.1631 6.90625 16 6.90625C14.8369 6.90625 13.8906 7.85252 13.8906 9.01562C13.8906 9.40333 13.5752 9.71875 13.1875 9.71875H12.4844V7.51562C12.4844 6.35252 13.4306 5.40625 14.5938 5.40625ZM11.7812 11.125H13.1875C14.3506 11.125 15.2969 10.1787 15.2969 9.01562C15.2969 8.62792 15.6123 8.3125 16 8.3125C16.3877 8.3125 16.7031 8.62792 16.7031 9.01562C16.7031 10.1787 17.6494 11.125 18.8125 11.125H20.2188C20.6065 11.125 20.9219 11.4404 20.9219 11.8281C20.9219 12.2158 20.6065 12.5312 20.2188 12.5312H19.5156V14.6406C19.5156 16.1284 18.5738 17.461 17.1719 17.9564L16.7031 18.1221V20.9688H18.1094V21.4439C18.1094 22.3007 17.694 23.1083 16.9981 23.6043L17.8144 24.7494C18.8797 23.9901 19.5156 22.7544 19.5156 21.4439V20.9688H20.9219V21.4437C20.9219 23.7644 19.4647 25.8198 17.2854 26.5938H14.7146C12.5353 25.8198 11.0781 23.7644 11.0781 21.4437V20.9688H12.4844V21.4439C12.4844 22.7544 13.1203 23.9901 14.1856 24.7494L15.0018 23.6043C14.306 23.1083 13.8906 22.3007 13.8906 21.4439V20.9688H15.2969V18.1221L14.8281 17.9564C13.4262 17.4609 12.4844 16.1284 12.4844 14.6406V12.5312H11.7812C11.4034 12.5312 11.0781 12.2251 11.0781 11.8281C11.0781 11.4404 11.3935 11.125 11.7812 11.125ZM13.8906 19.0888V19.5625H11.0932C11.1353 18.5635 11.2669 17.5733 11.487 16.6005C11.956 17.6782 12.8023 18.5723 13.8906 19.0888ZM8.26562 23.0781C8.26562 22.1615 8.85348 21.3799 9.67188 21.0897V21.4437C9.67188 23.46 10.5466 25.3173 11.9912 26.5938H8.26562V23.0781ZM23.7344 26.5938H20.0088C21.4534 25.3173 22.3281 23.46 22.3281 21.4437V21.0897C23.1465 21.3799 23.7344 22.1615 23.7344 23.0781V26.5938Z" fill="#BACED0"/>
</svg>
