<svg width="32" height="32" viewBox="0 0 32 32" fill="none" xmlns="http://www.w3.org/2000/svg">
<g clip-path="url(#clip0_432_554)">
<path d="M15.2112 8.25047C13.2902 6.32942 10.1717 6.32924 8.25052 8.25047C6.32947 10.1714 6.32928 13.29 8.25052 15.2111C10.1716 17.1322 13.29 17.1323 15.2112 15.2111C17.1322 13.2901 17.1323 10.1716 15.2112 8.25047ZM15.2377 11.9425L13.8323 11.5659C13.8124 11.3104 13.7464 11.0578 13.634 10.8219L14.6641 9.79188C15.0769 10.4146 15.2838 11.1592 15.2377 11.9425ZM11.2337 11.2336C11.5086 10.9588 11.9532 10.9588 12.228 11.2336C12.5022 11.5078 12.5022 11.9538 12.228 12.228C11.9539 12.5021 11.5078 12.502 11.2337 12.228C10.9588 11.9531 10.9588 11.5085 11.2337 11.2336ZM13.6697 8.79751L12.6397 9.82755C12.4038 9.71519 12.1513 9.64919 11.8957 9.62932L11.5191 8.22394C12.2967 8.1781 13.0426 8.38177 13.6697 8.79751ZM10.1601 8.58545L10.5371 9.99218C10.321 10.1407 10.141 10.3206 9.99227 10.537L8.58554 10.1601C8.75251 9.82563 8.97325 9.51653 9.24494 9.24484C9.51663 8.97315 9.82572 8.75246 10.1601 8.58545ZM8.22399 11.5191L9.62941 11.8956C9.64928 12.1513 9.71524 12.4037 9.82764 12.6397L8.7976 13.6697C8.38482 13.047 8.17796 12.3023 8.22399 11.5191ZM9.79197 14.6641L10.822 13.634C11.0579 13.7464 11.3105 13.8124 11.566 13.8323L11.9426 15.2377C11.1584 15.2836 10.4142 15.0765 9.79197 14.6641ZM13.3016 14.8761L12.9247 13.4694C13.1409 13.3208 13.3208 13.1409 13.4694 12.9245L14.8762 13.3014C14.5362 13.9825 13.9835 14.5356 13.3016 14.8761Z" fill="#BACED0"/>
<path d="M19.3186 10.3691C19.0402 8.7886 18.3108 7.37258 17.1999 6.26168C14.1843 3.24604 9.2774 3.24609 6.26176 6.26168C3.24612 9.27732 3.24612 14.1842 6.26176 17.1999C7.37261 18.3107 8.78863 19.0402 10.3692 19.3186L19.0506 28L28 19.0506L19.3186 10.3691ZM11.0381 17.9987C10.9104 17.9607 8.91768 17.867 7.25608 16.2055C4.78874 13.7381 4.78874 9.72343 7.25608 7.2561C9.72309 4.78914 13.7377 4.78834 16.2055 7.2561C17.8721 8.92266 17.959 10.9046 17.9987 11.0381L26.0112 19.0506L19.0506 26.0112L11.0381 17.9987Z" fill="#BACED0"/>
<path d="M18.9727 14.0008L14.0009 18.9727L18.9727 23.9446L23.9446 18.9727L18.9727 14.0008ZM21.9559 18.9727L20.9615 19.9671L19.9671 18.9727L20.9615 17.9783L21.9559 18.9727ZM19.9671 16.9839L18.9727 17.9783L17.9783 16.9839L18.9727 15.9896L19.9671 16.9839ZM16.984 17.9783L17.9784 18.9727L16.984 19.9671L15.9896 18.9727L16.984 17.9783ZM17.9783 20.9615L18.9727 19.9671L19.9671 20.9615L18.9727 21.9558L17.9783 20.9615Z" fill="#BACED0"/>
</g>
<defs>
<clipPath id="clip0_432_554">
<rect width="24" height="24" fill="white" transform="translate(4 4)"/>
</clipPath>
</defs>
</svg>
