<svg width="32" height="32" viewBox="0 0 32 32" fill="none" xmlns="http://www.w3.org/2000/svg">
<path d="M21.2277 13.249L18.3068 10.3281L21.5167 5.40625H20.2188C18.8451 5.40625 17.563 5.0988 16.511 4.51708C15.8905 4.17395 15.2454 4 14.5938 4C13.4991 4 12.47 4.42628 11.6959 5.20033L10.8806 6.01562L13.2957 9.71875H11.7812C11.3935 9.71875 11.0781 9.40333 11.0781 9.01562V8.3125H9.67188V9.01562C9.67188 10.1787 10.6181 11.125 11.7812 11.125H12.8963L10.7723 13.249C8.3357 15.6856 6.85938 19.0527 6.85938 22.6955V24.4844C6.85938 26.4229 8.43648 28 10.375 28H21.625C23.5635 28 25.1406 26.4229 25.1406 24.4844V22.6955C25.1406 19.2498 23.8036 15.8248 21.2277 13.249ZM12.6819 6.20312L12.6903 6.19469C13.1988 5.68623 13.8747 5.40625 14.5938 5.40625C15.0046 5.40625 15.4207 5.52114 15.8305 5.74773C16.759 6.26111 17.8274 6.59612 18.9701 6.7368L17.0254 9.71875C16.373 9.71875 15.627 9.71875 14.9746 9.71875L12.6819 6.20312ZM23.7344 24.4844C23.7344 25.6475 22.7881 26.5938 21.625 26.5938H10.375C9.21189 26.5938 8.26562 25.6475 8.26562 24.4844V22.6955C8.26562 19.5027 9.50894 16.501 11.7666 14.2434L14.885 11.125H17.115L20.2334 14.2434C22.4911 16.501 23.7344 19.5027 23.7344 22.6955V24.4844Z" fill="#BACED0"/>
<path d="M16 18.1562C16.3877 18.1562 16.7031 18.4717 16.7031 18.8594H18.1094C18.1094 17.9427 17.5215 17.1612 16.7031 16.8709V15.3438H15.2969V16.8709C14.4785 17.1612 13.8906 17.9427 13.8906 18.8594C13.8906 20.0225 14.8369 20.9688 16 20.9688C16.3877 20.9688 16.7031 21.2842 16.7031 21.6719C16.7031 22.0596 16.3877 22.375 16 22.375C15.6123 22.375 15.2969 22.0596 15.2969 21.6719H13.8906C13.8906 22.5885 14.4785 23.3701 15.2969 23.6603V25.1875H16.7031V23.6603C17.5215 23.3701 18.1094 22.5885 18.1094 21.6719C18.1094 20.5088 17.1631 19.5625 16 19.5625C15.6123 19.5625 15.2969 19.2471 15.2969 18.8594C15.2969 18.4717 15.6123 18.1562 16 18.1562Z" fill="#BACED0"/>
</svg>
